<?xml version="1.0" standalone="no"?>
<!DOCTYPE svg PUBLIC "-//W3C//DTD SVG 20010904//EN"
 "http://www.w3.org/TR/2001/REC-SVG-20010904/DTD/svg10.dtd">
<svg version="1.0" xmlns="http://www.w3.org/2000/svg"
 width="1385.000000pt" height="1380.000000pt" viewBox="0 0 1385.000000 1380.000000"
 preserveAspectRatio="xMidYMid meet">
<metadata>
Created by potrace 1.16, written by Peter Selinger 2001-2019
</metadata>
<g transform="translate(0.000000,1380.000000) scale(0.100000,-0.100000)"
fill="#000000" stroke="none">
<path d="M6680 13783 c-909 -39 -1585 -161 -2017 -364 -137 -63 -163 -83 -163
-120 0 -23 259 -386 1212 -1699 l1211 -1670 37 0 37 0 388 518 c214 284 414
551 446 592 32 41 242 320 467 620 224 300 578 771 785 1047 297 395 377 509
377 532 0 27 -6 32 -77 61 -116 49 -190 76 -383 141 -556 189 -1094 302 -1615
339 -125 9 -533 11 -705 3z"/>
<path d="M2935 12529 l-570 -409 0 -38 c0 -33 139 -231 1389 -1977 764 -1067
1392 -1945 1397 -1950 4 -6 -16 -46 -48 -95 -164 -250 -288 -599 -322 -909 -6
-52 -14 -98 -18 -102 -7 -6 -4623 -1359 -4638 -1359 -19 0 16 -143 187 -752
l193 -688 37 0 c20 0 1066 300 2325 666 1258 366 2299 667 2313 670 21 3 34
-8 85 -72 170 -215 475 -445 745 -564 l85 -37 3 -2452 2 -2451 735 0 735 0 0
2429 0 2428 93 33 c276 99 538 271 769 507 l106 108 2313 -747 c1272 -412
2327 -748 2345 -748 l32 0 221 671 c144 434 221 682 219 702 l-3 31 -2313 767
c-1272 421 -2315 769 -2318 772 -3 2 -9 60 -15 128 -13 159 -48 336 -99 491
-40 120 -133 327 -189 418 l-28 45 1458 1930 c1308 1731 1458 1934 1459 1967
l0 36 -555 424 c-500 381 -559 423 -592 423 l-37 0 -1487 -1923 c-817 -1058
-1490 -1927 -1495 -1932 -7 -7 -43 -3 -99 9 -168 36 -273 44 -523 38 -142 -4
-267 -12 -312 -20 -41 -8 -75 -14 -76 -14 0 1 -648 892 -1439 1980 -1384 1902
-1439 1977 -1469 1977 -25 -1 -149 -86 -601 -411z m3915 -4120 c-7 -11 -83
-240 -170 -507 l-158 -487 -528 -3 c-343 -1 -531 1 -536 8 -4 5 -5 8 -2 5 4
-3 31 46 61 108 84 174 170 295 308 433 262 262 587 419 945 453 47 5 86 9 88
10 1 0 -2 -8 -8 -20z m275 -6 c244 -37 476 -137 692 -296 96 -72 247 -227 321
-333 55 -76 192 -331 192 -356 0 -4 -243 -8 -540 -8 -297 0 -540 2 -540 5 0
16 -312 965 -325 987 l-15 27 57 -5 c32 -3 103 -12 158 -21z m1235 -1074 c73
-246 85 -465 39 -706 -27 -140 -60 -237 -128 -378 -125 -260 -301 -461 -536
-617 -536 -356 -1167 -347 -1710 23 -58 39 -105 75 -105 80 0 5 -4 8 -9 7 -20
-6 -220 224 -294 337 -151 235 -232 489 -244 760 -6 157 5 267 43 418 13 54
21 104 17 110 -4 7 11 -5 33 -26 21 -21 216 -166 432 -323 215 -157 392 -292
392 -300 0 -7 -70 -228 -155 -491 -85 -262 -155 -490 -155 -505 0 -26 3 -28
38 -28 33 0 83 33 451 301 380 276 416 301 435 289 12 -7 200 -143 418 -301
344 -251 401 -289 432 -289 34 0 36 2 36 33 0 19 -70 249 -155 511 -85 263
-155 481 -155 485 0 4 191 146 425 315 408 298 425 310 420 338 -10 56 15 26
35 -43z"/>
<path d="M1550 11103 c-222 -265 -504 -671 -684 -986 -231 -404 -381 -748
-506 -1167 -181 -607 -288 -1113 -332 -1575 -17 -189 -15 -586 5 -710 22 -139
29 -155 68 -155 17 0 913 286 1990 635 1078 349 1961 635 1964 635 3 0 5 15 5
33 0 29 -183 295 -1175 1708 l-1176 1674 -38 3 c-38 3 -41 1 -121 -95z"/>
<path d="M11265 9743 c-528 -753 -1060 -1511 -1183 -1686 -204 -290 -223 -320
-220 -354 l3 -36 115 -38 c63 -21 264 -86 445 -144 182 -59 481 -156 665 -216
184 -59 504 -163 710 -229 206 -66 436 -141 510 -166 74 -24 290 -94 480 -155
190 -60 419 -134 510 -164 396 -130 447 -145 486 -145 l42 0 7 158 c10 214 -1
770 -20 972 -68 738 -201 1239 -537 2025 -256 598 -538 1082 -805 1378 -109
121 -167 167 -212 167 l-38 0 -958 -1367z"/>
<path d="M3170 4000 c-987 -285 -1868 -540 -1957 -566 l-163 -47 0 -38 c0 -29
16 -65 71 -156 326 -541 817 -1131 1259 -1514 322 -280 888 -663 1357 -921
473 -259 941 -428 1184 -428 l59 0 0 138 c0 75 16 990 35 2032 19 1042 35
1923 35 1958 l0 62 -42 -1 c-24 -1 -838 -230 -1838 -519z"/>
<path d="M8620 4368 c-4 -44 -67 -4155 -64 -4160 10 -16 73 -7 243 38 724 188
1477 525 1996 895 612 436 1225 1001 1541 1420 154 204 264 398 272 480 l4 47
-228 75 c-126 42 -1011 331 -1966 642 -1482 482 -1797 580 -1798 563z"/>
</g>
</svg>
